<svg xmlns="http://www.w3.org/2000/svg" width="64" height="64" viewBox="0 0 64 64">
  <g id="icon-builderimage" transform="translate(-1445 -5979)">
    <rect id="box" width="64" height="64" transform="translate(1445 5979)" fill="none"/>
    <path id="icon" d="M130.667-790.222h42.667L160-808l-10.667,14.222-8-10.667Zm8.889-24.889a5.143,5.143,0,0,0,3.778-1.556,5.143,5.143,0,0,0,1.556-3.778,5.143,5.143,0,0,0-1.556-3.778,5.143,5.143,0,0,0-3.778-1.556,5.143,5.143,0,0,0-3.778,1.556,5.143,5.143,0,0,0-1.556,3.778,5.143,5.143,0,0,0,1.556,3.778A5.143,5.143,0,0,0,139.556-815.111Z" transform="translate(1325 6819)" fill="#0066a4"/>
    <path id="icon-2" data-name="icon" d="M127.111-776a6.847,6.847,0,0,1-5.022-2.089A6.847,6.847,0,0,1,120-783.111v-49.778a6.848,6.848,0,0,1,2.089-5.022A6.848,6.848,0,0,1,127.111-840h49.778a6.848,6.848,0,0,1,5.022,2.089A6.848,6.848,0,0,1,184-832.889v49.778a6.847,6.847,0,0,1-2.089,5.022A6.847,6.847,0,0,1,176.889-776Zm0-7.111h49.778v-49.778H127.111Zm0,0v0Z" transform="translate(1325 6819)" fill="#ebebeb"/>
  </g>
</svg>
