<svg xmlns="http://www.w3.org/2000/svg" width="64.001" height="64" viewBox="0 0 64.001 64">
  <g id="icon-buildertext" transform="translate(-1223.999 -397)">
    <rect id="box" width="64" height="64" transform="translate(1224 397)" fill="none"/>
    <path id="icon-text" d="M-25.534,7.736l.055-1.868a18.164,18.164,0,0,1,1.84-.412,8.555,8.555,0,0,0,2.568-.742,4.945,4.945,0,0,0,1.112-1.593L-14.413-11.4l6.506-17.07H-4.92l.247.494L.1-16.656q1.619,3.6,2.909,6.991T5.233-4.13Q5.782-2.839,6.742-.257A36.538,36.538,0,0,0,8.251,3.259,4.258,4.258,0,0,0,9.075,4.6a3.129,3.129,0,0,0,1.607.549,10.3,10.3,0,0,1,2.4.632,9.949,9.949,0,0,1,.137,1.346q0,.192-.027.6-2.033,0-4.477-.192T4.323,7.351q-2.17,0-3.131.055l-4.67.247-1.346.055q0-.961.082-1.84l3.049-.659A5.738,5.738,0,0,0-.1,4.659a.868.868,0,0,0,.275-.632,2.2,2.2,0,0,0-.137-.742L-1.053.594-3.208-4.79l-10.486-.027q-.584,1.318-2.419,6.455a7.388,7.388,0,0,0-.522,1.978,1.217,1.217,0,0,0,.385,1.016,4.976,4.976,0,0,0,2.417.742q.247.055,1.95.3.027.989.027,1.373a3.845,3.845,0,0,1-.055.632q-1.7,0-8.13-.467l-1.126.192a24.223,24.223,0,0,1-3.873.33ZM-12.614-7.7q6.419.082,7.572.082l.686-.027q-.824-2.445-2.143-5.7T-8.641-18.3ZM37.5,2.6l.632.412a.775.775,0,0,1,.3.467l.027.137a6.712,6.712,0,0,1-1.73,3.365,3.943,3.943,0,0,1-2.664.92,4.454,4.454,0,0,1-2.787-.893,7.714,7.714,0,0,1-2.128-3.145,7.609,7.609,0,0,1-3.324,3.145,11.779,11.779,0,0,1-5.247,1.058,6.211,6.211,0,0,1-4.2-1.195,4,4,0,0,1-1.346-3.145,4.667,4.667,0,0,1,.4-1.84A6.2,6.2,0,0,1,16.725.031,12.684,12.684,0,0,1,19.6-1.988q.3-.165,2.088-.934l6.839-2.747q.082-1.044.082-2.115,0-3.708-.906-5.054a2.139,2.139,0,0,0-1.923-.824,6.059,6.059,0,0,0-2.527.522,3.72,3.72,0,0,0-1.676,1.346,6.732,6.732,0,0,0-.659,2.28,4.144,4.144,0,0,1-.357,1.4,3.539,3.539,0,0,1-1.5.948q-1.085.426-1.47.618a5.9,5.9,0,0,1-2.362.714,1.163,1.163,0,0,1-.385-.934A5.237,5.237,0,0,1,15.5-9.459a11.726,11.726,0,0,1,2.98-3.09,14.069,14.069,0,0,1,3.722-2.1,18.8,18.8,0,0,1,5.768-.769,8.183,8.183,0,0,1,3.777.81,4.438,4.438,0,0,1,2.2,2.4,18.034,18.034,0,0,1,.618,5.741L34.51-1.933l.055,3.324v.852a2.851,2.851,0,0,0,.311,1.579.947.947,0,0,0,.8.426.821.821,0,0,0,.513-.165l.824-1.291ZM28.5-3.773a17.1,17.1,0,0,0-3.53,1.744A8.334,8.334,0,0,0,22.232.429a4.22,4.22,0,0,0-.549,2.225A2.754,2.754,0,0,0,22.4,4.6a2.19,2.19,0,0,0,1.648.769,3.98,3.98,0,0,0,2.609-.879,5.4,5.4,0,0,0,1.7-1.882A17.524,17.524,0,0,0,28.6-1.356Q28.6-2.565,28.5-3.773Z" transform="translate(1249.533 439.467)" fill="#0066a4"/>
  </g>
</svg>
