<svg xmlns="http://www.w3.org/2000/svg" width="64.001" height="64" viewBox="0 0 64.001 64">
  <g id="icon-builderheading" transform="translate(-1220 -397)">
    <rect id="box" width="64" height="64" transform="translate(1220 397)" fill="none"/>
    <path id="icon-heading" d="M-17.649,22.93a19.488,19.488,0,0,1,.238-2.789l4.962-.864a20.065,20.065,0,0,0,2.183-.629l.514-9.822Q-9.91,3.522-9.91.889l.039-.943q.118-1.611.118-8.093l-.1-1.139.1-3.3L-9.831-16v-1.689a49.888,49.888,0,0,0-.336-5.343,4.929,4.929,0,0,0-.3-.943,2.831,2.831,0,0,0-.695-.157q-.377-.039-.774-.118a30.663,30.663,0,0,0-3.295-.393l-.6-.157a7.7,7.7,0,0,1-1.627-.314q-.119-1.139-.119-1.454a5.01,5.01,0,0,1,.238-1.3,11.9,11.9,0,0,1,2.2-.157q1.416,0,1.967-.039,4.8.511,7.121.55,1.063,0,2.145.059t1.908.059q1.3,0,6.334-.393a7.822,7.822,0,0,1,1.81-.2,15.842,15.842,0,0,1,2.44.157q.039.825.039,1.179a9.148,9.148,0,0,1-.158,1.532l-6.95,1.1A1.235,1.235,0,0,0,.7-22.88l.088,1.454.029.629L.79-19.069.737-17.733v.314a4.259,4.259,0,0,1,.079.746l-.079,4.99a10.528,10.528,0,0,1,.079,1.061q0,.2-.052,1.257-.026.629-.026,1.3,0,.589.079,2.789a15.4,15.4,0,0,0,1.844.236l5.806.118H11.29l7.062.039,6.866-.2a15.59,15.59,0,0,0,2.824-.275q.079-1.336.118-6.561l.079-1.768L28-20.366l-.275-2.75a1.171,1.171,0,0,0-.55-.511,24.219,24.219,0,0,0-5.5-1.768,11.145,11.145,0,0,1-1.414-.393,11.182,11.182,0,0,1,.314-2.239q.863-.039,1.059-.039l3.805.039a57.8,57.8,0,0,0,7.414.471q.862,0,1.373-.039l5.1-.157L40.7-27.83a13.326,13.326,0,0,1,2.9-.314q1.137,0,2.746.118-.039,1.532-.2,2.789-3.594.746-4.708,1.08a12.919,12.919,0,0,0-2.247.923l-.235.786v.668L39-20.758l-.052.511a10.8,10.8,0,0,0-.1,1.257v.982q.079,1.768.079,1.964v4.99l.039,3.772-.1,4.99Q38.807-.564,39,4.779v5.579l.079,4.636q0,1.3-.079,3.143.821.236,1.524.393a30.357,30.357,0,0,1,5.548,1.611l.118,2.75q-1.569.039-1.843.039-1.883,0-4.316-.236-3.217-.354-10.357-.354-3.217,0-8.316.511a4.774,4.774,0,0,1-1.334-.236,15.828,15.828,0,0,1,.2-2.554l3.025-.707,3.182-.511q.471-.118,1.218-.354a92.815,92.815,0,0,0,.471-10.568l.039-3.339a45.2,45.2,0,0,1-.236-4.99q-1.452-.118-3.139-.157l-18.2-.2L6.23-.8,5.955-.839A5.757,5.757,0,0,0,5.327-.8Q4.308-.761,3.6-.761H2.5A6.091,6.091,0,0,0,.816-.486l-.2,2.947v.511Q.7,4.032.7,4.347V16.526a18.849,18.849,0,0,0,.118,2.082l.355.236,5.8.9a4.148,4.148,0,0,0,.672.2,2.621,2.621,0,0,1,.869.354,11.576,11.576,0,0,1,.118,1.218,8.774,8.774,0,0,1-.158,1.414q-1.416.039-2.4.039-.866,0-1.613-.039a5.4,5.4,0,0,1-.669-.039l-5.548-.236q-1.967-.2-5.508-.2l-.826.039q-1.653.079-1.928.118A66.137,66.137,0,0,1-17.649,22.93Z" transform="translate(1237.65 431.145)" fill="#0066a4"/>
  </g>
</svg>
