<svg xmlns="http://www.w3.org/2000/svg" width="64.001" height="64" viewBox="0 0 64.001 64">
  <g id="icon-builderparagraph" transform="translate(-1247.999 -384.855)">
    <rect id="box" width="64" height="64" transform="translate(1248 384.855)" fill="none"/>
    <path id="Path_11485" data-name="Path 11485" d="M-12.472-26.512l-.021-1.633,5.135.322,2.3-.021h.838q1.311,0,4.1-.15,1.59-.107,2-.107a20.571,20.571,0,0,1,4.082.3A8.122,8.122,0,0,1,9.3-26.426a7.738,7.738,0,0,1,2.127,2.7,7.231,7.231,0,0,1,.892,3.255,8.169,8.169,0,0,1-2.353,6.069,8.092,8.092,0,0,1-5.94,2.331,9.177,9.177,0,0,1-2.374-.3,8.025,8.025,0,0,1-2.116-.9A10.667,10.667,0,0,1-.569-15q.516.043.935.064t.741.021a4.716,4.716,0,0,0,3.072-1.012,5.118,5.118,0,0,0,1.654-4.262,7.294,7.294,0,0,0-.72-3.455,4,4,0,0,0-1.708-1.819A7.19,7.19,0,0,0,.312-26.1a4.2,4.2,0,0,0-2.3.474,2.618,2.618,0,0,0-.258.538l.15,10.128-.043.86.064.9q.021.3.021.882v1.763l.021,2.817-.043,3.355a18.968,18.968,0,0,0,.129,1.914l4.275.537a5.261,5.261,0,0,1,.086.816,5.31,5.31,0,0,1-.107.9,5.619,5.619,0,0,1-.816.086q-.666,0-2.514-.161T-5.231-.451a35.856,35.856,0,0,0-5.07.344q-.408.064-1.289.107a7.49,7.49,0,0,1-.086-.924q0-.193.043-.6l1.311-.43a10.762,10.762,0,0,0,2.342-.988,3.871,3.871,0,0,0,.193-1.139q0-.215-.021-.494-.021-.666-.021-1.869L-7.9-12.482l-.236-6.811q-.15-4.855-.236-5.242a1.969,1.969,0,0,0-.516-.978,2.328,2.328,0,0,0-1.225-.5A19.4,19.4,0,0,1-12.472-26.512Z" transform="translate(1260.492 413)" fill="#0066a4"/>
    <rect id="Rectangle_1273" data-name="Rectangle 1273" width="32" height="6" rx="3" transform="translate(1280 384.855)" fill="#ebebeb"/>
    <rect id="Rectangle_1274" data-name="Rectangle 1274" width="32" height="6" rx="3" transform="translate(1280 396.855)" fill="#ebebeb"/>
    <rect id="Rectangle_1275" data-name="Rectangle 1275" width="32" height="6" rx="3" transform="translate(1280 408.855)" fill="#ebebeb"/>
    <rect id="Rectangle_1276" data-name="Rectangle 1276" width="63.999" height="6" rx="3" transform="translate(1248 422.855)" fill="#ebebeb"/>
    <rect id="Rectangle_1277" data-name="Rectangle 1277" width="63.999" height="6" rx="3" transform="translate(1248 432.855)" fill="#ebebeb"/>
    <rect id="Rectangle_1278" data-name="Rectangle 1278" width="63.999" height="6" rx="3" transform="translate(1248 442.855)" fill="#ebebeb"/>
  </g>
</svg>
