<svg xmlns="http://www.w3.org/2000/svg" width="64.001" height="64" viewBox="0 0 64.001 64">
  <g id="icon-builderemptystate" transform="translate(-1228.999 -6087)">
    <rect id="box" width="64" height="64" transform="translate(1229 6087)" fill="none"/>
    <path id="Path_11323" data-name="Path 11323" d="M3602.792,676.544a.673.673,0,0,1-.671-.672.634.634,0,0,1,.671-.672h3.425a.673.673,0,0,1,.671.672.634.634,0,0,1-.671.672h-3.425Zm-3.358,0h-3.357a.673.673,0,0,1-.672-.672.634.634,0,0,1,.672-.672h3.357a.673.673,0,0,1,.671.672A.634.634,0,0,1,3599.434,676.544Zm-6.715,0h-3.358a.673.673,0,0,1-.671-.672.634.634,0,0,1,.671-.672h3.358a.672.672,0,0,1,0,1.343Zm-6.783,0h0a9.385,9.385,0,0,1-3.56-.739.662.662,0,0,1,.538-1.209,7.83,7.83,0,0,0,3.022.6.584.584,0,0,1,.6.672A.555.555,0,0,1,3585.936,676.544Zm23.572-.6a.645.645,0,0,1-.6-.4.573.573,0,0,1,.336-.806,7.621,7.621,0,0,0,2.619-1.679.665.665,0,0,1,.94.94,10.151,10.151,0,0,1-3.022,1.948Zm-29.683-1.88a.727.727,0,0,1-.47-.2,8.829,8.829,0,0,1-2.082-2.888.661.661,0,0,1,1.209-.537,9.8,9.8,0,0,0,1.813,2.552.648.648,0,0,1,0,.94A.782.782,0,0,1,3579.825,674.06Zm34.518-2.619a.4.4,0,0,1-.268-.067.666.666,0,0,1-.336-.873,7.782,7.782,0,0,0,.806-3.022.639.639,0,1,1,1.276.067,9.342,9.342,0,0,1-.94,3.492A.51.51,0,0,1,3614.343,671.441Zm-37.271-3.358a.715.715,0,0,1-.672-.6v-3.425a.673.673,0,0,1,.672-.672.634.634,0,0,1,.671.672v3.358a.673.673,0,0,1-.671.672Zm38.145-3.291a.673.673,0,0,1-.671-.672v-3.358a.673.673,0,0,1,.671-.672.634.634,0,0,1,.671.672v3.358A.673.673,0,0,1,3615.216,664.792Zm-38.145-3.425a.673.673,0,0,1-.672-.672v-3.358a.673.673,0,0,1,.672-.672.634.634,0,0,1,.671.672V660.7A.719.719,0,0,1,3577.071,661.367Zm38.145-3.291a.673.673,0,0,1-.671-.672v-3.358a.673.673,0,0,1,.671-.672.634.634,0,0,1,.671.672V657.4A.673.673,0,0,1,3615.216,658.077Zm-38.145-3.492a.673.673,0,0,1-.672-.672v-3.358a.673.673,0,0,1,.672-.672.634.634,0,0,1,.671.672v3.358A.719.719,0,0,1,3577.071,654.584Zm38.145-3.224a.673.673,0,0,1-.671-.672v-3.358a.673.673,0,0,1,.671-.672.634.634,0,0,1,.671.672v3.358A.722.722,0,0,1,3615.216,651.361Zm0-6.783a.673.673,0,0,1-.671-.672v-3.358a.673.673,0,0,1,.671-.672.634.634,0,0,1,.671.672v3.358A.673.673,0,0,1,3615.216,644.578Zm-38.145-3.425a.673.673,0,0,1-.672-.672v-3.358a.673.673,0,0,1,.672-.672.634.634,0,0,1,.671.672v3.358A.782.782,0,0,1,3577.071,641.153Zm38.145-3.291a.673.673,0,0,1-.671-.672v-3.358a.639.639,0,1,1,1.276-.067v3.425A.617.617,0,0,1,3615.216,637.863Zm-38.145-3.492h0a.673.673,0,0,1-.672-.672,9.352,9.352,0,0,1,.94-3.492.646.646,0,1,1,1.142.6,7.765,7.765,0,0,0-.806,3.022A.592.592,0,0,1,3577.071,634.37Zm37.271-3.156a.645.645,0,0,1-.6-.4,9.8,9.8,0,0,0-1.813-2.552.665.665,0,0,1,.94-.94,8.814,8.814,0,0,1,2.082,2.888.666.666,0,0,1-.336.873C3614.544,631.214,3614.477,631.214,3614.343,631.214Zm-34.384-2.753a.609.609,0,0,1-.47-.2.714.714,0,0,1,0-.94,10.137,10.137,0,0,1,3.022-1.948.617.617,0,0,1,.47,1.142,7.624,7.624,0,0,0-2.619,1.679A.485.485,0,0,1,3579.959,628.461Zm29.616-1.746a.508.508,0,0,1-.269-.067,7.828,7.828,0,0,0-3.022-.6.585.585,0,0,1-.6-.672.62.62,0,0,1,.672-.6,8.8,8.8,0,0,1,3.492.739.666.666,0,0,1,.336.873A.772.772,0,0,1,3609.575,626.715Zm-6.648-.672h-3.357a.672.672,0,1,1,0-1.343h3.357a.673.673,0,0,1,.671.672A.722.722,0,0,1,3602.926,626.043Zm-6.715,0h-3.358a.672.672,0,1,1,0-1.343h3.358a.673.673,0,0,1,.671.672A.783.783,0,0,1,3596.211,626.043Zm-6.783,0h-3.358a.673.673,0,0,1-.672-.672.663.663,0,0,1,.6-.672h3.358a.673.673,0,0,1,.672.672A.617.617,0,0,1,3589.428,626.043Z" transform="translate(-2322.889 5474.455)" fill="#0066a4"/>
    <path id="Path_11324" data-name="Path 11324" d="M3607.62,663.283l-2.485,1.477.067-.537a14.828,14.828,0,0,0-10.947-16.453,15.658,15.658,0,0,0-3.559-.47c-6.38,0-6.178.47,0,.47a14.911,14.911,0,0,1,3.425.4,14.333,14.333,0,0,1,10.678,15.782l-.134.739-1.477-2.485c-.067-.067-.134-.134-.2-.134h-.134c-.067,0-.067.067-.134.134v.2l1.747,2.955c.066.134.2.134.335.067l2.955-1.746c.134-.067.134-.2.067-.336C3607.889,663.283,3607.754,663.216,3607.62,663.283Z" transform="translate(-2325.914 5467.033)" fill="#0066a4"/>
    <path id="Path_11325" data-name="Path 11325" d="M3608.469,662.819a.826.826,0,0,0-.671-.336.955.955,0,0,0-.4.134l-1.544.873a15.448,15.448,0,0,0-11.417-16.52,13.448,13.448,0,0,0-3.626-.47c-6.581,0-5.91,1.477,0,1.477a13.687,13.687,0,0,1,13.633,14.841l-.739-1.209a.826.826,0,0,0-.672-.336.954.954,0,0,0-.4.134.779.779,0,0,0-.336.47.711.711,0,0,0,.068.537l1.746,2.955a.827.827,0,0,0,.672.336.954.954,0,0,0,.4-.134l2.955-1.746a.775.775,0,0,0,.336-.47C3608.6,663.222,3608.537,663.02,3608.469,662.819Zm-.537.6-2.955,1.746a.3.3,0,0,1-.336-.067l-1.746-2.955c0-.067-.068-.134,0-.2a.144.144,0,0,1,.134-.135h.134c.067,0,.134.067.2.135l1.478,2.485.134-.739A14.333,14.333,0,0,0,3594.3,647.91a14.909,14.909,0,0,0-3.425-.4c-6.178,0-6.38-.47,0-.47a12.963,12.963,0,0,1,3.559.47,14.828,14.828,0,0,1,10.947,16.453l-.067.537,2.485-1.477a.3.3,0,0,1,.336.067C3608.067,663.222,3608.067,663.356,3607.932,663.423Z" transform="translate(-2325.963 5467.295)" fill="#0066a4"/>
    <path id="Path_11326" data-name="Path 11326" d="M3568.346,606.6H3548.2a9,9,0,0,0-9,9v32.5a9,9,0,0,0,9,9h20.147a9,9,0,0,0,9-9V615.6A9,9,0,0,0,3568.346,606.6Zm-3.626,33.041h-3.761l2.216,5.171a.347.347,0,0,1-.2.47l-2.417,1.007h-.269l-.2-.2-2.283-5.372-2.82,2.418a.514.514,0,0,1-.336.134.53.53,0,0,1-.537-.537V628.9a.556.556,0,0,1,.94-.4l10.141,10.141a.663.663,0,0,1,.134.4A.564.564,0,0,1,3564.719,639.641Z" transform="translate(-2310.201 5480.4)" fill="#0066a4"/>
  </g>
</svg>
