<svg xmlns="http://www.w3.org/2000/svg" width="64" height="64" viewBox="0 0 64 64">
  <g id="icon-buildernumberedlist" transform="translate(-1248 -384.855)">
    <rect id="box" width="64" height="64" transform="translate(1248 384.855)" fill="none"/>
    <rect id="Rectangle_1273" data-name="Rectangle 1273" width="52" height="6" rx="3" transform="translate(1260 384.855)" fill="#ebebeb"/>
    <rect id="Rectangle_1274" data-name="Rectangle 1274" width="52" height="6" rx="3" transform="translate(1260 396.855)" fill="#ebebeb"/>
    <rect id="Rectangle_1275" data-name="Rectangle 1275" width="52" height="6" rx="3" transform="translate(1260 408.855)" fill="#ebebeb"/>
    <rect id="Rectangle_1276" data-name="Rectangle 1276" width="63.999" height="6" rx="3" transform="translate(1248 422.855)" fill="#ebebeb"/>
    <rect id="Rectangle_1277" data-name="Rectangle 1277" width="63.999" height="6" rx="3" transform="translate(1248 432.855)" fill="#ebebeb"/>
    <rect id="Rectangle_1278" data-name="Rectangle 1278" width="63.999" height="6" rx="3" transform="translate(1248 442.855)" fill="#ebebeb"/>
    <path id="Path_11488" data-name="Path 11488" d="M1.093.312H-.3V-4.122l-1.368.4V-4.777L.965-5.688h.128Z" transform="translate(1249.668 390.543)" fill="#0066a4"/>
    <path id="Path_11487" data-name="Path 11487" d="M2.163.23H-1.964V-.663l1.9-2a2.269,2.269,0,0,0,.7-1.271.884.884,0,0,0-.167-.581.6.6,0,0,0-.483-.2.6.6,0,0,0-.508.266,1.094,1.094,0,0,0-.195.664H-2.086a1.942,1.942,0,0,1,.272-1.005,1.909,1.909,0,0,1,.756-.721A2.244,2.244,0,0,1,.022-5.77,2.208,2.208,0,0,1,1.5-5.327a1.581,1.581,0,0,1,.518,1.271,1.846,1.846,0,0,1-.13.68,2.984,2.984,0,0,1-.4.695A10.182,10.182,0,0,1,.6-1.707l-.764.882H2.163Z" transform="translate(1250.086 402.625)" fill="#0066a4"/>
    <path id="Path_11486" data-name="Path 11486" d="M-.73-3.333h.637a.663.663,0,0,0,.758-.741.641.641,0,0,0-.18-.471.684.684,0,0,0-.509-.182.732.732,0,0,0-.467.156.477.477,0,0,0-.2.389H-2.041A1.383,1.383,0,0,1-1.784-5a1.694,1.694,0,0,1,.711-.563,2.432,2.432,0,0,1,1-.2,2.39,2.39,0,0,1,1.531.445A1.479,1.479,0,0,1,2.015-4.1a1.233,1.233,0,0,1-.23.711,1.643,1.643,0,0,1-.671.543,1.569,1.569,0,0,1,.729.511,1.346,1.346,0,0,1,.265.848,1.506,1.506,0,0,1-.6,1.251A2.5,2.5,0,0,1-.073.23,2.588,2.588,0,0,1-1.137.012,1.667,1.667,0,0,1-1.88-.593a1.573,1.573,0,0,1-.253-.88H-.774a.608.608,0,0,0,.216.465.764.764,0,0,0,.533.2.8.8,0,0,0,.569-.2.663.663,0,0,0,.212-.507.775.775,0,0,0-.22-.625.922.922,0,0,0-.609-.184H-.73Z" transform="translate(1250.133 414.625)" fill="#0066a4"/>
  </g>
</svg>
