<svg xmlns="http://www.w3.org/2000/svg" width="78.638" height="78.638" viewBox="0 0 78.638 78.638">
  <g id="icon-builderlink" transform="translate(-1361.685 -6030.027)">
    <rect id="box" width="64" height="64" transform="translate(1369 6037)" fill="none"/>
    <path id="icon-link" d="M102.242-657.758v-7.414H131.9v7.414Z" transform="translate(1785.949 6619.854) rotate(-45)" fill="#ebebeb"/>
    <path id="icon-link-2" data-name="icon-link" d="M113.363-642.93H98.535a17.864,17.864,0,0,1-13.114-5.422A17.863,17.863,0,0,1,80-661.465a17.864,17.864,0,0,1,5.422-13.114A17.864,17.864,0,0,1,98.535-680h14.828v7.414H98.535a10.725,10.725,0,0,0-7.877,3.244,10.725,10.725,0,0,0-3.244,7.878,10.725,10.725,0,0,0,3.244,7.878,10.725,10.725,0,0,0,7.877,3.244h14.828Zm7.414,0v-7.414h14.828a10.725,10.725,0,0,0,7.877-3.244,10.725,10.725,0,0,0,3.244-7.878,10.725,10.725,0,0,0-3.244-7.878,10.725,10.725,0,0,0-7.877-3.244H120.778V-680h14.828a17.864,17.864,0,0,1,13.114,5.422,17.864,17.864,0,0,1,5.422,13.114,17.863,17.863,0,0,1-5.422,13.114,17.864,17.864,0,0,1-13.114,5.422Z" transform="translate(1785.949 6619.854) rotate(-45)" fill="#0066a4"/>
  </g>
</svg>
